<svg xmlns="http://www.w3.org/2000/svg" viewBox="0 0 1724.47 1095.3"><defs><style>.cls-1{fill:#503bff;}.cls-2{fill:#8293ff;}.cls-10,.cls-3,.cls-8{fill:#fff;}.cls-4{fill:#dadefc;}.cls-5{fill:#9aa2ea;}.cls-6{fill:#242f9a;}.cls-11,.cls-13,.cls-7{fill:none;}.cls-10,.cls-11,.cls-7,.cls-8{stroke:#242f9a;stroke-linejoin:round;}.cls-10,.cls-11,.cls-13,.cls-7,.cls-8{stroke-linecap:round;}.cls-10,.cls-7{stroke-width:4px;}.cls-11,.cls-8{stroke-width:3px;}.cls-9{fill:#120283;}.cls-12{fill:#96a4cd;}.cls-13{stroke:#dadefc;stroke-miterlimit:10;stroke-width:7px;}</style></defs><g id="Layer_2" data-name="Layer 2"><g id="Design_3" data-name="Design 3"><path class="cls-1" d="M1724.47,520.09V393.34a27.85,27.85,0,0,0-27.86-27.85h-6.7a27.85,27.85,0,0,1-27.85-27.86V210.89A27.86,27.86,0,0,0,1634.2,183h-66.27a27.85,27.85,0,0,1-27.86-27.85V27.86A27.85,27.85,0,0,0,1512.22,0h-1265a27.85,27.85,0,0,0-27.85,27.86V155.18A27.85,27.85,0,0,1,191.53,183h-147a27.86,27.86,0,0,0-27.85,27.86V337.63a27.85,27.85,0,0,0,27.85,27.86H76.76a27.85,27.85,0,0,1,27.86,27.85V520.09a27.85,27.85,0,0,1-27.86,27.85H31.37A27.85,27.85,0,0,0,3.52,575.8V702.54A27.86,27.86,0,0,0,31.37,730.4H176.05a27.85,27.85,0,0,1,27.86,27.85V885a27.86,27.86,0,0,1-27.86,27.86H27.86A27.85,27.85,0,0,0,0,940.7v126.75a27.85,27.85,0,0,0,27.86,27.85H1529.24a27.85,27.85,0,0,0,27.85-27.85V940.7A27.85,27.85,0,0,1,1585,912.85h66.27A27.86,27.86,0,0,0,1679.08,885V758.25a27.85,27.85,0,0,0-27.86-27.85h0a27.86,27.86,0,0,1-27.85-27.86V575.8a27.85,27.85,0,0,1,27.85-27.86h45.39A27.85,27.85,0,0,0,1724.47,520.09Z"/><path class="cls-2" d="M504,416.14a241.27,241.27,0,0,1-9.6,45.69,223.11,223.11,0,0,1-18.51,43c-7,12.36-16.69,23.33-28.81,30.84a49.77,49.77,0,0,1-37.37,6.26c-24.59-5.67-42.68-24.34-51.51-47.42-11.53-30.11-8-64.94-1.23-95.1A203.08,203.08,0,0,1,374.05,351a111.2,111.2,0,0,1,24.62-32.15A92.42,92.42,0,0,1,426.43,302a62.69,62.69,0,0,1,27.94-3.73c10,1,22.63,5.62,30.74,11.58,7.52,5.53,15.49,15.22,19.2,23.87,4.4,10.26,6.23,21.72,6.64,32.53a12,12,0,0,1-5.06,9.92,8.5,8.5,0,0,1-5.07,1.49c-2.33-.05-5.59-.13-9.78-.3s-7.33-.36-9.43-.48a8.17,8.17,0,0,1-5.94-3.2,10.31,10.31,0,0,1-2.09-7.14,36,36,0,0,0-1.92-12.73,20,20,0,0,0-6.64-9.5,17.67,17.67,0,0,0-12-3.61c-14.3.64-24.23,12.87-32.47,23.18-11.08,13.86-19.27,31.63-23.4,48.9-4.42,18.43-5.87,37.06-1.92,56.07,2.65,12.8,8.8,27.64,22.52,30.84a18.34,18.34,0,0,0,12.22-1.3,28.66,28.66,0,0,0,9.26-6.83,55.48,55.48,0,0,0,7.68-12.49c2.68-5.56,4.72-10.14,6.11-13.69s3.26-8.68,5.59-15.4c.47-1.11.82-1.89,1.05-2.33a4.48,4.48,0,0,0-.7-4.1,4.87,4.87,0,0,0-3.49-2.32c-4.75-.56-7.13-.88-11.87-1.57a14.67,14.67,0,0,1-7.51-3.44,16.78,16.78,0,0,1-4.89-6.94,13,13,0,0,1-.53-8.12c1.4-5.34,2.54-10.18,3.5-14.42a7.65,7.65,0,0,1,3.49-4.84,8.4,8.4,0,0,1,5.94-1.36c2.55.38,10.35,1.59,23.39,2.8s22.59,1.58,28.64,1.77a7.78,7.78,0,0,1,6.46,3.31A11.35,11.35,0,0,1,504,416.14Z"/><path class="cls-2" d="M670.9,364.4c-2.92,21.48-12,42.39-22.36,61.67C640,442,628.66,458.31,612.92,468.22q13.73,29.75,27.59,59.43a5.27,5.27,0,0,1-1,4.75,7.11,7.11,0,0,1-4.54,3c-9.84,2-19.76,3.76-29.68,5.32q-3.86.6-5.59-3.68-13.71-28.57-27.24-57.22-1-2.32-4.54-2a4.72,4.72,0,0,0-4.54,4.28q-2.45,12.47-5.41,26.85c-2.26,10.92-4.36,21.87-6.46,32.82-.7,3.55-2.92,5.46-6.64,5.69-11.45.71-17.18.93-28.64,1a6.05,6.05,0,0,1-5.06-2.42,6.37,6.37,0,0,1-1.22-5.59q12.48-64.44,25-128.87c6.67-34.55,13.46-69.09,19.73-103.72.7-3.78,3.73-5.88,9.08-6.38,10.32-1,20.72-2.23,30.91-3.68s20.68-3.24,30.91-5.11c14.46-2.65,29.73,2.65,37.54,15.7C673.38,325.74,673.46,345.51,670.9,364.4Zm-44,14.36c.89-10.61.89-22.32-5.93-31.74-5.86-8.07-14.21-11.45-25.15-9.87a8.21,8.21,0,0,0-4.54,2.39,8.73,8.73,0,0,0-2.45,4.88c-.51,3-2.14,11.07-4.36,23.79q-3.18,18.3-6.46,36.59-3.13,17.49-4.89,25.71a6.74,6.74,0,0,0,1.57,6.11,6.27,6.27,0,0,0,5.76,2.12c12.77-1.62,23.3-10.54,30.56-20.66C619.26,406.56,625.74,392.56,626.89,378.76Z"/><path class="cls-2" d="M744.58,266.7a8.11,8.11,0,0,1,5.59-5.54c10.9-3.33,16.35-5,27.24-8.53a4.61,4.61,0,0,1,2.8,0A3.81,3.81,0,0,1,782.3,254a4.67,4.67,0,0,1,.7,2.74V490.06a6.67,6.67,0,0,1-1.75,4.23,8.75,8.75,0,0,1-4.19,2.92c-9.78,3.13-14.66,4.67-24.44,7.67a5.06,5.06,0,0,1-3.84-.22,3.46,3.46,0,0,1-1.75-3.31c-.12-3.77-.93-12.17-2.1-24.86a3.36,3.36,0,0,0-1.74-3.32,5.11,5.11,0,0,0-3.84-.24q-14.28,4.29-28.64,8.26a7.79,7.79,0,0,0-5.59,5.38q-5.24,15.56-10.48,31.1a7.3,7.3,0,0,1-5.24,5.21c-10.61,2.75-15.92,4.06-26.54,6.51a4.27,4.27,0,0,1-4.54-1.4,5.4,5.4,0,0,1-1.05-5c13.34-42.79,28.19-85.13,42.61-127.55C714.49,352.46,728.7,309.25,744.58,266.7ZM747.38,394c0-2.8-1.4-4-4.19-3.63l-4.54.32c-2.8.37-4.66,2.08-5.59,5.15q-7,19.83-14,39.66a5.11,5.11,0,0,0,.7,5.22q1.74,2.12,4.89,1.22c6.7-1.94,10.06-2.93,16.76-4.94a8.23,8.23,0,0,0,4.19-3,7.68,7.68,0,0,0,1.75-4.72Z"/><path class="cls-2" d="M920.6,205c10.47-3.41,19.63-2.24,27.41,3.1,9.22,6.33,13.59,16.94,16.59,26.66,4,12.81,3.29,28,.7,41.7-5.31,28.07-19.1,53.94-37,76-18.14,22.37-41.66,40.42-69.15,49.69q-2.76,15.88-5.94,31.69c-2.34,11.66-4.49,23.37-6.63,35.07a9.24,9.24,0,0,1-6.64,7.47q-14.29,4.83-28.63,9.59-3.15,1.05-5.07-.77a4.75,4.75,0,0,1-1.22-4.83q22.44-123.07,44.7-246.16,1-5.94,9.08-8.65,15.54-5.25,31.08-10.46Q905.21,210.06,920.6,205ZM875.55,359c13.69-4.69,23.25-15.34,30.55-26.44,8-12.11,14.65-26.77,15.9-41.7.85-10.22,1.18-22-5.94-30.9-5.84-7.29-14.21-9.3-25.15-5.64a10.37,10.37,0,0,0-4.54,3.26,10.91,10.91,0,0,0-2.44,5.36c-.52,3.14-2.15,11.5-4.37,24.69q-3.18,19-6.46,38-3.14,18.17-4.89,26.79c-.47,2.49.06,4.41,1.57,5.76S873.23,359.76,875.55,359Z"/><path class="cls-2" d="M1086.49,165.63a7.53,7.53,0,0,1,6.63-6.45c11.32-2,17-2.91,28.29-4.46a5.47,5.47,0,0,1,4.89,1.79,5.15,5.15,0,0,1,1.4,5.06Q1105.22,280.73,1083,399.93c-.69,3.86-2.91,6.14-6.63,6.88q-14.37,2.83-28.64,6.2a5.43,5.43,0,0,1-5.24-1.21,5.21,5.21,0,0,1-1.39-5.25q4.26-23.4,8.73-46.76c3-15.59,5.92-31.19,9.08-46.75a6.28,6.28,0,0,0-1.57-5.24,5,5,0,0,0-5.07-1.31c-9.08,2.07-17.63,4.15-25.14,6.42a8.6,8.6,0,0,0-6.29,6.86q-9.11,49.83-18.51,99.61a8.58,8.58,0,0,1-6.64,7.09q-14.35,4-28.63,8.38-3.15,1-5.07-.9a4.84,4.84,0,0,1-1.22-4.87Q983,307,1005.46,184.87a8.47,8.47,0,0,1,6.64-7c11.17-3,16.76-4.43,27.94-7.13a5.19,5.19,0,0,1,5.06,1.06c1.28,1.21,1.69,2.93,1.22,5.13-5.27,29.2-10.61,58.4-15.71,87.63a5.48,5.48,0,0,0,1.22,5.28,5,5,0,0,0,5.07,1.2c9.63-2.36,14.45-3.48,24.09-5.58a8,8,0,0,0,6.64-7c1.87-9.8,3.88-19.58,5.93-29.34q3.54-16.72,7-33.51C1082.61,185.61,1084.61,175.63,1086.49,165.63Z"/><path class="cls-2" d="M1205.22,157.13q-21.87,116.42-44.7,232.67c-.7,3.54-2.91,5.45-6.63,5.76-11.46,1-17.19,1.61-28.64,3.11a5.52,5.52,0,0,1-6.29-6.83q22.17-118,44.7-235.91c.7-3.54,2.91-5.44,6.64-5.65,11.46-.64,17.18-.83,28.64-.86a6.28,6.28,0,0,1,5.06,2.28A6,6,0,0,1,1205.22,157.13Z"/><path class="cls-2" d="M1365.87,241.65a7.81,7.81,0,0,1-3.14,6.79,7.08,7.08,0,0,1-7,.81c-1.86-.69-4-1.46-6.28-2.29s-4.6-1.61-6.81-2.35-4.25-1.41-6.11-2a11.46,11.46,0,0,1-5.94-4.65,13.09,13.09,0,0,1-2.45-7.72,33.17,33.17,0,0,0-4.71-18.48c-3.37-5.38-8.56-9-15.54-10.73s-14.38,1.26-22.18,8.67c-8.73,8.29-15.38,18.73-20.6,28.94A166.67,166.67,0,0,0,1252,274a128.48,128.48,0,0,0-3.67,39.43c.81,10.48,2.54,21.45,7.86,31.07,4.69,8.47,10.83,13.39,18.51,14.63a16.65,16.65,0,0,0,5.94,0,13.55,13.55,0,0,0,5.41-2.51,33,33,0,0,0,4.54-4,45.67,45.67,0,0,0,4.37-5.74,54.9,54.9,0,0,0,3.66-6.19q1.23-2.52,3.67-7c1.63-3,2.91-5.2,3.84-6.61,1.86-3.51,4.77-4.78,8.73-3.75,9.36,2.45,14,3.81,23.4,6.85a11.18,11.18,0,0,1,5.07,3.6,13.61,13.61,0,0,1,3,5.73,11.3,11.3,0,0,1-.35,6.16,92.71,92.71,0,0,1-17.47,29.14,87.18,87.18,0,0,1-28.63,21.72c-10,4.74-22.19,7.85-34.23,6-22.52-3.41-42.46-15.49-52-36.91-13-29.1-8.2-65.39-2.09-94.87,3.73-18,9.15-36.88,17.46-53.61,6.62-13.33,14-27,24.62-37.2,8-7.61,17-15,27.77-19,9.5-3.57,19-4.42,27.94-2.12a68.63,68.63,0,0,1,41,30.72C1359.61,205,1365.82,223.38,1365.87,241.65Z"/><path class="cls-2" d="M407.57,609.72a148.15,148.15,0,0,1,12.58,29.63,113.28,113.28,0,0,1,4.36,29.15,245.48,245.48,0,0,1-.87,25,207.31,207.31,0,0,1-3.84,23.68,301.61,301.61,0,0,1-11.18,39.13c-4.69,12.88-11.65,26-20.08,36.39-6.9,8.46-15.51,17.6-27.07,20.31-8.61,2-20.93,2.16-29.33-1.61a507.46,507.46,0,0,1-65.31-35.55,17,17,0,0,1-5.76-6.6c-1.52-2.87-2-5.32-1.58-7.34q11.13-50.24,22-100.52,11.08-51.2,22-102.46c.93-3.46,3.37-4.14,7.33-2.12,6.29,3.19,13.5,6.67,21.66,10.27s16.18,6.86,24.09,9.8,15.14,5.37,21.66,7.4C391.16,588.27,401.23,598.26,407.57,609.72ZM380,710.87c8.31-38.93,6.21-82.42-35.62-99.3a5.85,5.85,0,0,0-4.54-.14,4,4,0,0,0-2.45,3.51c-9.42,46-18.84,92-29,137.92q-1,3,1.22,6.91a13.7,13.7,0,0,0,5.76,5.69c9.31,4.6,17.82,5.9,25.5,4.1a33,33,0,0,0,19-12.67,100.53,100.53,0,0,0,12.4-21.22A127.65,127.65,0,0,0,380,710.87Z"/><path class="cls-2" d="M513.74,643.71a6.7,6.7,0,0,0-2.1.35,17.5,17.5,0,0,0-2.09.87,6.85,6.85,0,0,0-1.75,1.21l-1.4,1.39a4.36,4.36,0,0,0-1,1.73c-.23.7-.47,1.4-.7,2.09-2.62,13.57-5.25,27.15-8,40.69a10.09,10.09,0,0,0,2.09,8.09,9,9,0,0,0,7.34,3.62c11.33,0,22.55-.25,33.87-.74a8.69,8.69,0,0,1,7.34,2.88,8.49,8.49,0,0,1,2.09,7.37c-1.63,10.59-2.82,17.55-3.49,20.84a10.93,10.93,0,0,1-3.32,6,9.4,9.4,0,0,1-6.11,2.59q-21.12,1-42.26.3a10.78,10.78,0,0,0-4.19.71,7,7,0,0,0-3.32,2.46,9.05,9.05,0,0,0-1.57,4.11q-4.53,23.46-9.08,46.92a8.81,8.81,0,0,0,1.75,7.81,9.46,9.46,0,0,0,7.33,3.94c19.28.78,38.36.68,57.63-.22a8.44,8.44,0,0,1,7.33,3,8.82,8.82,0,0,1,1.75,7.91c-.5,2.32-1.11,5.79-1.92,10.27s-1.51,7.7-1.93,9.56a10.42,10.42,0,0,1-3.31,5.8,9.89,9.89,0,0,1-6.12,2.44,546.35,546.35,0,0,1-102.32-5.26,10.84,10.84,0,0,1-7.34-4.76,9.38,9.38,0,0,1-1.74-8q21.66-109.87,42.95-219.81a7.52,7.52,0,0,1,1.75-3.7,9.76,9.76,0,0,1,3.32-2.53,8.7,8.7,0,0,1,4.36-.74,618.38,618.38,0,0,0,101.63-3.4,8,8,0,0,1,7.34,2.55,8.48,8.48,0,0,1,2.09,7.4c-1.63,9.3-2.89,16.26-3.84,20.77a12,12,0,0,1-3.14,5.82,9.76,9.76,0,0,1-5.94,3c-10.51,1.41-21.5,2.56-32.13,3.27C535.05,643,524.34,643.36,513.74,643.71Z"/><path class="cls-2" d="M729.92,635.49C722,637.81,718,639,710,641.16a8.48,8.48,0,0,1-7-.88,7.58,7.58,0,0,1-3.49-6c-.59-6-2.56-11-5.59-14.58s-7.25-5.12-12.57-4.45A35.5,35.5,0,0,0,657.27,629a54.73,54.73,0,0,0-11.52,25.92c-.89,5.76,0,10.83,2.79,15.12a30.24,30.24,0,0,0,12.05,10.42,97.49,97.49,0,0,0,16.24,6.44q8.38,2.48,17.46,5.33c6.05,1.9,10.48,3.72,13.27,5.51q8,5.13,11.35,16.38c2.22,7.52,2.8,16.06,1.93,25.48-.93,9.95-4,21-7.69,30.11a144.34,144.34,0,0,1-16.24,29.92c-7,9.64-15.8,18.65-25.49,25-11,7.16-21.8,12.37-34,14.71-10.18,1.94-22.38,1.71-32.66-3.2-8.06-3.84-17.1-12.5-21.13-20.56A88.26,88.26,0,0,1,575,783.71c-1-13,1.52-24.08,5.41-37.48,1.63-5.31,4.89-8.27,9.78-8.94,7.68-1,11.52-1.63,19.21-2.9a9.86,9.86,0,0,1,6.11.72,9.08,9.08,0,0,1,4,3.83,8.19,8.19,0,0,1,.69,5.81c-3,13.82-5.47,27.56.35,41,4,9.31,13.37,14.66,23.4,12.38A40.35,40.35,0,0,0,662.86,788a46.34,46.34,0,0,0,12-17.89,60.18,60.18,0,0,0,3.84-19.8A24.18,24.18,0,0,0,673,733.56c-4-4.63-9.49-7.48-16.42-8.39a76.47,76.47,0,0,1-17.63-4.43A67.65,67.65,0,0,1,622,710.91a44.91,44.91,0,0,1-12.92-15.75,66.59,66.59,0,0,1-5.94-21.75c-1-9,.92-20.06,4.19-28.43,11.13-35.85,41.13-58.72,75.79-68.29,9-2.49,22-2.53,30.91,1.18s16,9.36,20.25,17,6,16.48,5.76,25.71a17.31,17.31,0,0,1-2.79,9.39A13.13,13.13,0,0,1,729.92,635.49Z"/><path class="cls-2" d="M820.72,546.28Q799,669.31,776,792.12a9,9,0,0,1-6.63,7.35Q755.1,804,740.74,808.3q-3.13.94-5.06-.94a4.81,4.81,0,0,1-1.22-4.87q22.35-122.5,44.7-245a9.08,9.08,0,0,1,6.63-7.37q14.34-4.64,28.64-9.41c2.1-.7,3.79-.5,5.06.58S821.18,544,820.72,546.28Z"/><path class="cls-2" d="M974.38,600.1a338,338,0,0,1-9.6,48.82,369.06,369.06,0,0,1-18.51,49.73,153.22,153.22,0,0,1-28.82,43.12c-10.52,10.85-22.48,20.32-37.37,25.5-19.2,6.68-41.63,5.5-51.51-14.78-13.83-28.37-6.8-64.93-1.22-94.23a332,332,0,0,1,17.11-60.06c6.47-16.3,14.47-32.89,24.62-47.6,8-11.66,17.22-23.38,27.77-32.36,8.17-6.95,17.48-14.35,27.94-17.21,9.69-2.65,20.58-4.81,30.73-.84a35.59,35.59,0,0,1,19.21,17.39c4.49,8.75,6.7,20.81,6.63,30.52a14.77,14.77,0,0,1-1.39,6.17,18,18,0,0,1-3.67,5.28,12.16,12.16,0,0,1-5.06,3.08q-3.5,1-9.78,3c-4.19,1.28-7.34,2.26-9.43,2.91a6,6,0,0,1-5.94-.94c-1.63-1.35-2.21-3.57-2.09-6.32a30.41,30.41,0,0,0-1.93-12,11.24,11.24,0,0,0-6.63-6.8c-3.14-1.2-7.2-.68-12.05,1.62-15.37,7.28-25,25.3-32.48,39.17-10.25,19.09-19,40.44-23.4,62.17-3.82,19-5.67,38.29-1.92,57.22,2.08,10.48,10.23,22.37,22.53,17.92a33.61,33.61,0,0,0,12.22-7.74,62.08,62.08,0,0,0,9.25-11.44,103.08,103.08,0,0,0,7.69-16.14q4-10.21,6.11-16.48T929,650.89c.46-1.31.81-2.23,1-2.78a3.65,3.65,0,0,0-.7-3.79,3.13,3.13,0,0,0-3.5-.79c-4.74,1.53-7.12,2.31-11.87,3.87a11.51,11.51,0,0,1-7.51.2,8.35,8.35,0,0,1-4.89-4.5,11.84,11.84,0,0,1-.52-7.86c1.4-6,2.54-11.46,3.49-16.17A14.47,14.47,0,0,1,908,612.5a13.75,13.75,0,0,1,5.94-4.22c2.56-.84,10.37-3.44,23.4-7.57,9.52-3,19.07-6,28.64-8.91q4.18-1.27,6.46,1.19C974,594.63,974.61,597,974.38,600.1Z"/><path class="cls-2" d="M1100.1,697.72a5.92,5.92,0,0,1-5.24,5.44c-9.8,1.7-19.6,3.6-29.33,5.69-3,.65-4.89-.45-5.59-3.33-4.78-24-9.63-48.09-15-72-.47-2.68-2.21-3.67-5.24-2.94a6.48,6.48,0,0,0-5.24,5.82c-5,26.2-9.68,52.46-14.32,78.73a6.65,6.65,0,0,1-5.23,5.92q-14.55,3.84-29,8.05a4.35,4.35,0,0,1-4.19-.7,3.61,3.61,0,0,1-1.05-4.06c7.45-40.9,14.54-81.86,21.65-122.82s14.24-82,22-122.87a6.55,6.55,0,0,1,5.23-5.87q14.78-3.75,29.69-7c3-.67,4.77.48,5.24,3.4q6,39.45,11.87,78.92c.23,3,2.1,4.12,5.59,3.44s5.59-2.45,6.29-5.37q8-42.25,16.06-84.5a5.79,5.79,0,0,1,5.24-5.37c9.85-1.55,19.77-2.87,29.69-3.93a4.77,4.77,0,0,1,4.36,1.46,5,5,0,0,1,1.22,4.24q-7,37.89-14.14,75.79-8.17,43.73-16.41,87.44Q1107.07,659.46,1100.1,697.72Z"/><path class="cls-2" d="M1223.38,489.23a6.24,6.24,0,0,0-2.09.25,15,15,0,0,0-2.1.79,6.07,6.07,0,0,0-1.74,1.16l-1.4,1.35a4.23,4.23,0,0,0-1,1.72l-.7,2.07c-2.62,13.58-5.26,27.16-8,40.71a10,10,0,0,0,2.1,8.06,9.27,9.27,0,0,0,7.33,3.66c11.36.48,22.56,1.23,33.88,2.25a10.22,10.22,0,0,1,7.33,4.13,9.74,9.74,0,0,1,2.1,7.77c-1.64,10.27-2.82,17-3.5,20.18a8.81,8.81,0,0,1-3.31,5.39,8.43,8.43,0,0,1-6.12,1.64c-14-1.33-28.15-2-42.25-2.12a10.62,10.62,0,0,0-4.19.86,7.46,7.46,0,0,0-3.32,2.64,9.55,9.55,0,0,0-1.57,4.21q-4.56,23.84-9.08,47.67a8.32,8.32,0,0,0,1.74,7.64,8.88,8.88,0,0,0,7.34,3.36c19.32,0,38.39.91,57.62,2.74a10.13,10.13,0,0,1,7.33,4.36,9.88,9.88,0,0,1,1.75,8.26c-.5,2.22-1.1,5.56-1.92,9.88s-1.51,7.42-1.92,9.19a8.28,8.28,0,0,1-3.32,5.2,8.89,8.89,0,0,1-6.11,1.44,588.75,588.75,0,0,0-102.33.43,8.14,8.14,0,0,1-7.33-2.73,7.9,7.9,0,0,1-1.75-7.49q21.35-114.48,43-228.92a8.56,8.56,0,0,1,1.74-3.91,11.2,11.2,0,0,1,3.32-2.9,8.92,8.92,0,0,1,4.37-1.16,528.68,528.68,0,0,1,101.63,8.57,11.4,11.4,0,0,1,7.33,5,11,11,0,0,1,2.1,8.15c-1.63,8.71-2.89,15.23-3.85,19.41a7.84,7.84,0,0,1-3.14,4.76,7.5,7.5,0,0,1-5.93,1.08c-10.53-1.87-21.53-3.37-32.14-4.57A315.35,315.35,0,0,0,1223.38,489.23Z"/><path class="cls-2" d="M1444.1,602.16c-3.71,16.72-10.7,31.23-22.35,43-9.1,9.16-20.92,17.29-35.62,16.86q13.95,39.21,27.59,78.52.69,2.84-1,4c-1.16.76-2.68.65-4.54-.34-9.8-5-19.58-10-29.69-14.37-2.56-1.12-4.42-3.42-5.59-6.94q-13.47-35.67-27.24-71.21a6.7,6.7,0,0,0-4.54-4c-2.56-.85-4.07,0-4.54,2.36q-2.44,11.46-5.41,24.68-3.4,15.15-6.46,30.4c-.7,3.29-2.91,4.39-6.64,3.39-9.42-2.58-19-4.82-28.63-6.68a7.77,7.77,0,0,1-5.07-3.41,7.13,7.13,0,0,1-1.22-5.81q12.35-61.54,25-123c6.63-32.38,13.44-64.73,19.73-97.18.7-3.52,3.73-4.49,9.08-2.79,10.45,3.32,20.9,7.16,30.91,11.24,10.33,4.21,20.85,9.08,30.91,14,17.57,8.62,30.08,27.15,37.54,44.58C1444.5,558.67,1448.53,582.2,1444.1,602.16Zm-44-20.4c2.33-11.62-.69-24.76-5.94-35.77s-13.76-20.55-25.15-25.25a5.62,5.62,0,0,0-4.54-.09,4.5,4.5,0,0,0-2.44,3.58c-.5,2.62-2.15,9.93-4.37,21.54q-3.18,16.71-6.46,33.41-3.14,16-4.89,23.42a9,9,0,0,0,1.58,6.83,12.21,12.21,0,0,0,5.76,4.87c8.83,3.63,22.94,2.13,30.56-3.68C1393.47,603.55,1397.93,592.54,1400.1,581.76Z"/><path class="cls-3" d="M510.81,416.19a237.94,237.94,0,0,1-28.11,89.1,85.69,85.69,0,0,1-28.81,31.28,50.29,50.29,0,0,1-37.37,6.87C392,538.22,373.84,519.88,365,497c-11.59-30.06-7.62-64.47-1.23-95.07,3.49-16.66,9-33.64,17.12-48.7,6.41-11.94,14.54-23.48,24.62-32.6a94.12,94.12,0,0,1,27.76-17.36A63.11,63.11,0,0,1,461.22,299c10,.87,22.62,5.28,30.73,11.13,7.53,5.42,15.51,15,19.21,23.6,4.41,10.22,6.23,21.66,6.64,32.44a11.48,11.48,0,0,1-1.4,5.78,11.75,11.75,0,0,1-3.67,4.21,8.51,8.51,0,0,1-5.06,1.56c-2.33,0-5.59-.05-9.78-.17s-7.33-.25-9.43-.35a8,8,0,0,1-5.94-3.1,10.21,10.21,0,0,1-2.09-7.12,35.77,35.77,0,0,0-1.92-12.7,19.67,19.67,0,0,0-6.64-9.4,17.34,17.34,0,0,0-12.05-3.42c-13.69.93-24.52,13-32.47,23.71a138,138,0,0,0-23.4,49.3c-4.41,18.45-5.88,37.08-1.93,56.1,2.65,12.71,8.81,27.49,22.53,30.45a18.44,18.44,0,0,0,12.22-1.5,29.43,29.43,0,0,0,9.26-7A57,57,0,0,0,453.71,480c2.68-5.61,4.72-10.22,6.11-13.79s3.26-8.73,5.59-15.49c.47-1.12.82-1.9,1-2.35a4.43,4.43,0,0,0-.7-4.08,4.78,4.78,0,0,0-3.49-2.27c-4.75-.49-7.13-.76-11.87-1.38a14.49,14.49,0,0,1-7.51-3.32,16.38,16.38,0,0,1-4.89-6.86,13,13,0,0,1-.53-8.12c1.4-5.36,2.54-10.21,3.49-14.47a7.85,7.85,0,0,1,3.5-4.89,8.42,8.42,0,0,1,5.94-1.46c2.55.34,10.35,1.42,23.39,2.43s22.59,1.26,28.64,1.36a7.68,7.68,0,0,1,6.46,3.22A11.3,11.3,0,0,1,510.81,416.19Z"/><path class="cls-3" d="M677.75,362.74c-2.92,21.52-12,42.48-22.36,61.83-8.57,16-19.89,32.4-35.62,42.46q13.72,29.63,27.59,59.18a5.29,5.29,0,0,1-1.05,4.76,7.17,7.17,0,0,1-4.54,3c-9.84,2.06-19.76,3.93-29.68,5.59q-3.86.64-5.59-3.63Q592.79,507.55,579.26,479c-.7-1.54-2.22-2.18-4.54-1.91a4.77,4.77,0,0,0-4.54,4.33q-2.45,12.5-5.41,26.91c-2.26,10.94-4.36,21.92-6.46,32.9-.7,3.55-2.92,5.49-6.64,5.76-11.45.85-17.18,1.14-28.64,1.4a6,6,0,0,1-5.06-2.36,6.31,6.31,0,0,1-1.22-5.57q12.48-64.61,25-129.19c6.67-34.63,13.46-69.25,19.73-104,.7-3.79,3.73-5.92,9.08-6.48,10.33-1.08,20.72-2.46,30.91-4s20.68-3.44,30.9-5.4c14.41-2.76,29.72,2.37,37.55,15.4C680.25,324.09,680.31,343.87,677.75,362.74Zm-44,14.7c.88-10.59.91-22.3-5.94-31.68-5.85-8-14.2-11.33-25.14-9.63a8.22,8.22,0,0,0-4.54,2.43,8.82,8.82,0,0,0-2.45,4.9c-.51,3-2.15,11.09-4.36,23.84q-3.19,18.33-6.46,36.66-3.14,17.52-4.89,25.76a6.68,6.68,0,0,0,1.57,6.09,6.21,6.21,0,0,0,5.76,2.06c12.8-1.76,23.31-10.78,30.56-21C626.1,405.33,632.59,391.28,633.74,377.44Z"/><path class="cls-3" d="M751.43,264.62a8.15,8.15,0,0,1,5.59-5.57c10.9-3.37,16.35-5.1,27.24-8.62a4.62,4.62,0,0,1,2.8,0,3.8,3.8,0,0,1,2.09,1.41,4.67,4.67,0,0,1,.7,2.74v233.3a6.69,6.69,0,0,1-1.75,4.23,8.84,8.84,0,0,1-4.19,2.93c-9.78,3.16-14.66,4.71-24.44,7.75a5.06,5.06,0,0,1-3.84-.2,3.45,3.45,0,0,1-1.75-3.31c-.12-3.77-.93-12.16-2.1-24.85a3.33,3.33,0,0,0-1.74-3.3,5,5,0,0,0-3.85-.23q-14.27,4.35-28.63,8.4a7.86,7.86,0,0,0-5.59,5.41q-5.24,15.58-10.48,31.17a7.38,7.38,0,0,1-5.24,5.24c-10.61,2.81-15.92,4.16-26.54,6.69a4.24,4.24,0,0,1-4.54-1.37,5.37,5.37,0,0,1-1-5c13.34-42.88,28.19-85.32,42.61-127.84C721.34,350.52,735.55,307.24,751.43,264.62Zm2.8,127.31q0-4.19-4.19-3.6l-4.54.33q-4.2.57-5.59,5.17-7,19.88-14,39.74a5.1,5.1,0,0,0,.7,5.21q1.74,2.12,4.89,1.19c6.7-2,10.06-3,16.76-5a8.27,8.27,0,0,0,4.19-3,7.73,7.73,0,0,0,1.75-4.73Z"/><path class="cls-3" d="M927.45,202.8c10.47-3.39,19.63-2.19,27.41,3.19,9.22,6.36,13.59,17,16.59,26.72,4,12.81,3.29,28,.7,41.7-5.31,28-19.09,53.86-37,75.92C917,372.67,893.45,390.65,866,399.91q-2.76,15.88-5.94,31.69c-2.34,11.66-4.49,23.37-6.63,35.07a9.27,9.27,0,0,1-6.64,7.48q-14.31,4.83-28.63,9.61-3.15,1-5.07-.76a4.75,4.75,0,0,1-1.22-4.83q22.44-123.09,44.7-246.2,1.05-5.94,9.08-8.66,15.54-5.24,31.08-10.42Q912,207.79,927.45,202.8ZM882.4,356.67c13.68-4.68,23.25-15.31,30.55-26.4,8-12.09,14.65-26.74,15.89-41.66.86-10.23,1.19-22-5.93-30.91-5.84-7.31-14.21-9.34-25.15-5.7a10.45,10.45,0,0,0-4.54,3.26,10.91,10.91,0,0,0-2.44,5.36c-.52,3.13-2.15,11.5-4.37,24.68q-3.18,19-6.46,38-3.13,18.15-4.89,26.79c-.47,2.48.06,4.4,1.57,5.75S880.08,357.46,882.4,356.67Z"/><path class="cls-3" d="M1093.34,164.38A7.42,7.42,0,0,1,1100,158c11.32-1.91,17-2.75,28.29-4.18a5.51,5.51,0,0,1,4.89,1.84,5.18,5.18,0,0,1,1.4,5.07q-22.48,118.94-44.71,237.92c-.69,3.85-2.91,6.11-6.63,6.82q-14.37,2.71-28.64,6a5.46,5.46,0,0,1-5.24-1.25,5.23,5.23,0,0,1-1.39-5.26q4.26-23.37,8.73-46.69c2.95-15.57,5.92-31.15,9.08-46.68a6.34,6.34,0,0,0-1.57-5.26,5,5,0,0,0-5.07-1.34c-9.08,2-17.63,4-25.14,6.23a8.52,8.52,0,0,0-6.29,6.82q-9.11,49.77-18.51,99.5a8.53,8.53,0,0,1-6.64,7.05q-14.35,4-28.63,8.24-3.15.93-5.07-.93a4.84,4.84,0,0,1-1.22-4.87q22.2-122,44.7-244a8.41,8.41,0,0,1,6.64-7c11.17-2.93,16.76-4.32,27.94-6.93a5.17,5.17,0,0,1,5.06,1.1c1.28,1.21,1.69,2.93,1.22,5.13-5.27,29.17-10.61,58.32-15.71,87.52a5.49,5.49,0,0,0,1.22,5.29,5,5,0,0,0,5.06,1.23c9.64-2.29,14.46-3.37,24.1-5.39a8,8,0,0,0,6.64-7c1.87-9.78,3.88-19.55,5.93-29.29q3.54-16.69,7-33.45C1089.46,184.33,1091.46,174.36,1093.34,164.38Z"/><path class="cls-3" d="M1212.07,157.24q-21.88,116.13-44.7,232.1c-.7,3.53-2.91,5.41-6.63,5.68-11.46.84-17.19,1.41-28.64,2.79A5.48,5.48,0,0,1,1127,396a5.43,5.43,0,0,1-1.22-5.08q22.17-117.75,44.7-235.41c.7-3.53,2.91-5.41,6.64-5.57,11.45-.51,17.18-.61,28.64-.49a6.34,6.34,0,0,1,5.06,2.35A6,6,0,0,1,1212.07,157.24Z"/><path class="cls-3" d="M1372.72,244.47c0,3-1,5.27-3.14,6.72a7,7,0,0,1-7,.68c-1.86-.73-4-1.54-6.28-2.41s-4.6-1.7-6.81-2.48-4.25-1.49-6.11-2.12a11.75,11.75,0,0,1-5.94-4.76,13.27,13.27,0,0,1-2.45-7.76,33.6,33.6,0,0,0-4.71-18.57c-3.37-5.44-8.56-9.19-15.54-11s-14.38,1-22.18,8.28c-8.74,8.16-15.39,18.5-20.6,28.61a164,164,0,0,0-13.1,35.19,128.07,128.07,0,0,0-3.67,39.37c.81,10.52,2.55,21.52,7.86,31.19,4.69,8.55,10.83,13.57,18.51,14.93a16.51,16.51,0,0,0,5.94.06,13.19,13.19,0,0,0,5.41-2.42,32.67,32.67,0,0,0,4.54-3.93,44.22,44.22,0,0,0,4.37-5.67,53.16,53.16,0,0,0,3.66-6.13c.82-1.66,2-4,3.67-7s2.91-5.15,3.84-6.54c1.86-3.48,4.77-4.7,8.73-3.6,9.36,2.62,14,4.07,23.4,7.28a11.57,11.57,0,0,1,5.07,3.7,14,14,0,0,1,3,5.79,11.29,11.29,0,0,1-.35,6.16c-3.64,10.13-10.23,21.24-17.47,28.8-8.77,9.17-17.65,16.19-28.63,21.2-10,4.59-22.25,7.48-34.23,5.46-22.57-3.79-42.47-16.16-52-37.69-13-29.15-8.23-65.39-2.09-94.9,3.73-18,9.14-36.73,17.46-53.36,6.62-13.22,14-26.81,24.62-36.83,8-7.48,17-14.72,27.77-18.59a47.32,47.32,0,0,1,27.94-1.63c17,4.29,32,16.63,41,31.47C1366.66,207.55,1372.66,226.11,1372.72,244.47Z"/><path class="cls-3" d="M414.42,611.26A146,146,0,0,1,427,640.69a112.61,112.61,0,0,1,4.36,29.07,248.85,248.85,0,0,1-.87,25,208.68,208.68,0,0,1-3.84,23.75,306.88,306.88,0,0,1-11.18,39.32c-4.7,13-11.89,25.51-20.08,36.74-6.7,9.19-15.78,17.79-27.07,20.81-8.64,2.32-20.87,2.59-29.33-1a499.49,499.49,0,0,1-65.31-34.14,16.43,16.43,0,0,1-5.76-6.46c-1.52-2.84-2-5.28-1.58-7.31q11.13-50.49,22-101,11.08-51.43,22-102.93c.93-3.49,3.37-4.22,7.33-2.29,6.29,3.06,13.5,6.39,21.66,9.83s16.18,6.53,24.09,9.32,15.14,5.09,21.66,7C398,590.09,408.08,599.92,414.42,611.26ZM386.83,712.91c8.21-38.62,6.49-82.46-35.62-98.62a5.82,5.82,0,0,0-4.54,0,4.13,4.13,0,0,0-2.45,3.56c-9.42,46.22-18.85,92.44-29,138.51q-1,3,1.22,6.89a13.27,13.27,0,0,0,5.76,5.57c9.31,4.4,17.82,5.53,25.5,3.57a33.84,33.84,0,0,0,19-13,103.43,103.43,0,0,0,12.4-21.45A130,130,0,0,0,386.83,712.91Z"/><path class="cls-3" d="M520.59,643.63a6.77,6.77,0,0,0-2.1.39,17.69,17.69,0,0,0-2.09.89,6.74,6.74,0,0,0-1.75,1.24c-.47.47-.93.94-1.4,1.4a4.51,4.51,0,0,0-1,1.75l-.7,2.1c-2.62,13.61-5.25,27.22-8,40.79a10,10,0,0,0,2.1,8.07,8.91,8.91,0,0,0,7.34,3.52c11.33-.16,22.55-.55,33.87-1.18a8.61,8.61,0,0,1,7.33,2.79,8.39,8.39,0,0,1,2.1,7.34c-1.63,10.62-2.82,17.59-3.49,20.89a11.11,11.11,0,0,1-3.32,6,9.55,9.55,0,0,1-6.11,2.67q-21.1,1.26-42.26.85a10.86,10.86,0,0,0-4.19.77,7.19,7.19,0,0,0-3.32,2.51,9.13,9.13,0,0,0-1.57,4.13q-4.53,23.52-9.08,47.05a8.73,8.73,0,0,0,1.75,7.78,9.3,9.3,0,0,0,7.33,3.84c19.28.51,38.37.16,57.62-1a8.37,8.37,0,0,1,7.34,2.93,8.76,8.76,0,0,1,1.75,7.89c-.5,2.33-1.11,5.8-1.93,10.29s-1.5,7.72-1.92,9.58a10.62,10.62,0,0,1-3.31,5.85,10.08,10.08,0,0,1-6.12,2.51,556.39,556.39,0,0,1-102.32-3.8,10.65,10.65,0,0,1-7.34-4.64,9.31,9.31,0,0,1-1.74-8q21.66-110.21,42.95-220.49a7.67,7.67,0,0,1,1.75-3.72,10,10,0,0,1,3.32-2.58,8.71,8.71,0,0,1,4.36-.8A632.21,632.21,0,0,0,588,598.59a7.91,7.91,0,0,1,7.34,2.48,8.43,8.43,0,0,1,2.09,7.37c-1.63,9.32-2.89,16.3-3.84,20.81a12.21,12.21,0,0,1-3.14,5.86,9.9,9.9,0,0,1-5.94,3c-10.51,1.52-21.5,2.8-32.13,3.63C541.9,642.61,531.19,643.15,520.59,643.63Z"/><path class="cls-3" d="M736.77,633.47c-8,2.36-11.95,3.52-19.91,5.77a8.47,8.47,0,0,1-7-.84,7.51,7.51,0,0,1-3.49-6c-.59-6-2.56-11-5.59-14.55s-7.25-5.08-12.57-4.37a35.79,35.79,0,0,0-24.1,13.94,55.21,55.21,0,0,0-11.52,26c-.89,5.76,0,10.83,2.79,15.1a30.05,30.05,0,0,0,12.05,10.33,97,97,0,0,0,16.24,6.32q8.39,2.42,17.46,5.22c6.05,1.86,10.48,3.65,13.27,5.43q8,5.07,11.35,16.32c2.22,7.51,2.8,16,1.93,25.46-.93,10-4,21-7.69,30.15a145.08,145.08,0,0,1-16.24,30c-7,9.68-15.8,18.75-25.49,25.14-11,7.23-21.8,12.52-34,15-10.16,2-22.35,1.91-32.66-2.9-8-3.76-17.11-12.34-21.13-20.35a87.61,87.61,0,0,1-8.55-31.72c-1-13,1.53-24.12,5.41-37.53,1.63-5.34,4.89-8.34,9.78-9,7.68-1.13,11.52-1.75,19.21-3.09a9.86,9.86,0,0,1,6.11.66,8.87,8.87,0,0,1,4,3.79,8.14,8.14,0,0,1,.7,5.81c-3,13.81-5.49,27.56.35,41,4,9.3,13.42,14.53,23.4,12.17a40.78,40.78,0,0,0,18.86-10.24,46.83,46.83,0,0,0,12-18,60.76,60.76,0,0,0,3.84-19.84,24,24,0,0,0-5.76-16.7c-4-4.6-9.49-7.41-16.42-8.27a76.68,76.68,0,0,1-17.63-4.29,67.09,67.09,0,0,1-16.94-9.69A44.34,44.34,0,0,1,615.93,694,66.09,66.09,0,0,1,610,672.31c-1-9,.93-20.09,4.19-28.47,11.13-35.93,41.09-59.09,75.79-68.9,9-2.55,22-2.68,30.9,1s16,9.28,20.26,16.94,6,16.45,5.76,25.68a17.32,17.32,0,0,1-2.79,9.4A13.2,13.2,0,0,1,736.77,633.47Z"/><path class="cls-3" d="M827.57,544q-21.74,123.07-44.71,245.93a9,9,0,0,1-6.63,7.37q-14.28,4.58-28.64,8.94a4.78,4.78,0,0,1-5.06-.91,4.83,4.83,0,0,1-1.23-4.87Q763.67,677.86,786,555.27a9.13,9.13,0,0,1,6.63-7.4q14.34-4.67,28.64-9.46,3.15-1,5.06.57T827.57,544Z"/><path class="cls-3" d="M981.23,598.08a335.76,335.76,0,0,1-9.61,48.77,366.27,366.27,0,0,1-18.5,49.66,152.84,152.84,0,0,1-28.82,43c-10.52,10.83-22.49,20.28-37.37,25.43-19.2,6.66-41.63,5.49-51.51-14.78-13.83-28.36-6.8-64.93-1.22-94.23a332.11,332.11,0,0,1,17.11-60.07c6.47-16.3,14.47-32.88,24.62-47.59C884,536.64,893.15,524.92,903.7,516c8.17-6.94,17.48-14.33,27.94-17.15,9.69-2.63,20.59-4.74,30.73-.74a35.86,35.86,0,0,1,19.21,17.48c4.48,8.76,6.7,20.82,6.63,30.55a14.77,14.77,0,0,1-1.39,6.17,17.7,17.7,0,0,1-3.67,5.25,12.07,12.07,0,0,1-5.06,3.06c-2.33.69-5.59,1.65-9.78,2.92s-7.34,2.22-9.43,2.87a6,6,0,0,1-5.94-1c-1.63-1.35-2.21-3.58-2.1-6.33a30.23,30.23,0,0,0-1.92-12,11.28,11.28,0,0,0-6.63-6.82c-3.14-1.22-7.2-.71-12,1.57-15.37,7.25-25,25.26-32.48,39.11-10.25,19.08-19,40.42-23.4,62.14-3.83,19-5.67,38.29-1.92,57.22,2.08,10.48,10.23,22.37,22.53,17.95a33.69,33.69,0,0,0,12.22-7.72,62,62,0,0,0,9.25-11.43A102.74,102.74,0,0,0,924.13,683q4-10.2,6.11-16.47t5.59-17.86c.46-1.31.81-2.23,1-2.77a3.67,3.67,0,0,0-.7-3.8,3.15,3.15,0,0,0-3.5-.8c-4.75,1.52-7.12,2.29-11.87,3.84a11.44,11.44,0,0,1-7.51.18,8.35,8.35,0,0,1-4.89-4.5,11.85,11.85,0,0,1-.52-7.86c1.4-6.05,2.54-11.46,3.49-16.17a14.39,14.39,0,0,1,3.49-6.56,13.64,13.64,0,0,1,5.94-4.21c2.56-.83,10.37-3.41,23.4-7.5,9.51-3,19.07-5.95,28.64-8.81q4.18-1.25,6.46,1.23C980.82,592.61,981.46,595,981.23,598.08Z"/><path class="cls-3" d="M1107,696.6a5.85,5.85,0,0,1-5.24,5.39c-9.8,1.6-19.6,3.43-29.33,5.44-3,.62-4.89-.5-5.59-3.38-4.78-24.09-9.63-48.17-15-72.14-.47-2.68-2.21-3.68-5.24-3a6.42,6.42,0,0,0-5.24,5.79c-5,26.16-9.68,52.39-14.32,78.62a6.59,6.59,0,0,1-5.23,5.89q-14.55,3.75-29,7.89a4.4,4.4,0,0,1-4.19-.72,3.64,3.64,0,0,1-1-4.07c7.45-40.86,14.54-81.79,21.65-122.7s14.24-81.9,22-122.73a6.5,6.5,0,0,1,5.23-5.84q14.77-3.65,29.69-6.79c3-.64,4.77.52,5.24,3.44q6,39.5,11.87,79c.23,3,2.1,4.14,5.59,3.5s5.59-2.4,6.29-5.32q8-42.18,16.06-84.35a5.74,5.74,0,0,1,5.24-5.32c9.85-1.45,19.78-2.66,29.69-3.61a4.82,4.82,0,0,1,4.36,1.5,5.08,5.08,0,0,1,1.22,4.26q-7.05,37.82-14.14,75.64-8.17,43.63-16.41,87.26Q1113.92,658.42,1107,696.6Z"/><path class="cls-3" d="M1230.23,489.59a6.49,6.49,0,0,0-2.09.23,14.75,14.75,0,0,0-2.1.76,6,6,0,0,0-1.74,1.13l-1.4,1.33a4.15,4.15,0,0,0-1.05,1.7l-.7,2.07c-2.62,13.54-5.26,27.08-8,40.59a10.05,10.05,0,0,0,2.1,8.09,9.44,9.44,0,0,0,7.33,3.77c11.36.65,22.56,1.55,33.88,2.75a10.39,10.39,0,0,1,7.33,4.25,9.83,9.83,0,0,1,2.1,7.79c-1.64,10.25-2.82,17-3.5,20.13a8.67,8.67,0,0,1-3.31,5.34,8.38,8.38,0,0,1-6.12,1.55c-14-1.55-28.14-2.45-42.25-2.74a10.81,10.81,0,0,0-4.2.81,7.25,7.25,0,0,0-3.31,2.59,9.43,9.43,0,0,0-1.58,4.19q-4.54,23.77-9.07,47.55a8.37,8.37,0,0,0,1.74,7.66,9,9,0,0,0,7.33,3.46c19.35.29,38.41,1.45,57.63,3.58a10.3,10.3,0,0,1,7.33,4.47,10,10,0,0,1,1.75,8.28c-.5,2.22-1.11,5.55-1.92,9.85s-1.51,7.4-1.92,9.17a8.09,8.09,0,0,1-3.32,5.14,8.8,8.8,0,0,1-6.11,1.35,577.14,577.14,0,0,0-102.33-.95,8.22,8.22,0,0,1-7.33-2.81,8,8,0,0,1-1.75-7.51q21.35-114.23,43-228.41a8.45,8.45,0,0,1,1.74-3.88,11.06,11.06,0,0,1,3.32-2.86,9,9,0,0,1,4.37-1.11A522.24,522.24,0,0,1,1297.64,459a11.67,11.67,0,0,1,7.33,5.16,11.06,11.06,0,0,1,2.1,8.18c-1.64,8.69-2.89,15.18-3.85,19.35a7.65,7.65,0,0,1-3.14,4.7,7.49,7.49,0,0,1-5.94,1c-10.51-2.06-21.52-3.74-32.13-5.1A314.94,314.94,0,0,0,1230.23,489.59Z"/><path class="cls-3" d="M1451,606.66a87.56,87.56,0,0,1-22.35,42.45c-8.83,9.53-21.9,16.79-35.62,16.1q13.95,39.49,27.59,79.11c.46,1.89.11,3.21-1,3.94s-2.68.59-4.54-.44c-9.79-5.24-19.58-10.39-29.69-15-2.56-1.18-4.42-3.52-5.59-7.06q-13.47-35.92-27.24-71.74a6.91,6.91,0,0,0-4.54-4.07c-2.56-.9-4.07-.13-4.54,2.28q-2.45,11.4-5.41,24.57-3.4,15.09-6.46,30.28c-.7,3.28-2.91,4.34-6.64,3.27-9.42-2.75-19-5.16-28.63-7.18a8,8,0,0,1-5.07-3.49,7.22,7.22,0,0,1-1.22-5.84q12.35-61.33,25-122.61c6.63-32.26,13.44-64.49,19.73-96.82.7-3.5,3.73-4.43,9.08-2.62,10.46,3.52,20.8,7.6,30.91,11.84,10.44,4.37,20.82,9.37,30.91,14.66,17.94,9.39,29.87,27.35,37.54,45.41C1451.32,563.08,1455.41,586.66,1451,606.66Zm-44-21.37c2.35-11.65-.72-24.84-5.94-35.9s-13.74-20.82-25.15-25.76a5.61,5.61,0,0,0-4.54-.19,4.4,4.4,0,0,0-2.44,3.53c-.5,2.61-2.15,9.9-4.37,21.46q-3.18,16.64-6.46,33.29-3.13,15.91-4.89,23.32a9.12,9.12,0,0,0,1.57,6.86,12.66,12.66,0,0,0,5.77,5c8.73,3.77,22.86,2.64,30.56-3.06C1400.37,606.92,1404.79,596,1407,585.29Z"/><circle class="cls-2" cx="281.21" cy="426.97" r="35"/><circle class="cls-2" cx="314.91" cy="481.09" r="18.8"/><circle class="cls-2" cx="1429.9" cy="435.18" r="35"/><circle class="cls-2" cx="1463.6" cy="489.3" r="18.8"/><circle class="cls-2" cx="507.13" cy="273.44" r="35"/><circle class="cls-2" cx="439.97" cy="245.76" r="18.8"/><circle class="cls-2" cx="1417.16" cy="798.49" r="35"/><circle class="cls-2" cx="1350" cy="770.81" r="18.8"/><g id="huh_" data-name="huh!"><g id="leher"><polygon class="cls-4" points="935.48 716.86 821.04 718.16 832.63 624.36 923.89 625.66 935.48 716.86"/><path class="cls-5" d="M831,637.86S845,667.28,879.3,667.28s46.08-29.92,46.08-29.92Z"/></g><g id="Head_basic" data-name="Head basic"><path class="cls-6" d="M946.41,603.84s6.19-5.85,8.68-10.17,6.29-10.73,6.29-10.73l9.84-51.31,5.61-22.94s3.23-15.77,6.89-31.29,1-49.54-19.09-49.87c-4.48-13.11-18.84-22.41-18.84-22.41a96.29,96.29,0,0,0-47-14c-6.06-.67-17.76-.67-17.76-.67s-22.66-1-44.23,7.89c-30,13.11-41.22,32.8-41.22,32.8s-16.38,23.13-16.38,48.47a93.92,93.92,0,0,0,0,19.25c.25,4.18,3.74,25.31,5.81,32.84.22.88,12.08,49.54,13.11,51.46a78.13,78.13,0,0,0,3.44,8.21l6.75,11.73Z"/><path class="cls-4" d="M930.64,631.47c-14,16.1-31.75,26.46-53,26.12-21.26.34-39-10-53-26.12a3.31,3.31,0,0,0-.25-.3c-25.11-31.73-30.22-77.94-23.42-133,4.89-39.59,42.22-54.93,62.94-60.44a53.53,53.53,0,0,1,27.53,0c20.72,5.51,58,20.85,62.93,60.44C961.12,553.4,956,599.74,930.64,631.47Z"/><ellipse class="cls-4" cx="793.12" cy="557.27" rx="21.24" ry="27.23" transform="translate(-172.38 471.22) rotate(-30)"/><ellipse class="cls-4" cx="963.41" cy="557.27" rx="27.23" ry="21.24" transform="translate(-0.91 1112.97) rotate(-60)"/><path class="cls-5" d="M950.34,508.17S938.45,495.82,931,472.4c0,0-43.81-3.7-59.37,1.65s-7.78,23.69-29.13,28.36-36.5,14.59-48-2.36,5.55-56.88,5.55-56.88l30.63-16.81,74.48,3.29,48,25.49Z"/><polygon class="cls-6" points="949.34 505.17 955.17 557.27 957.05 534.52 960.15 527.28 957.89 474.32 949.34 483.3 949.34 505.17"/><polygon class="cls-6" points="805.79 505.17 799.96 557.27 798.08 534.52 794.98 527.28 796.31 496.08 805.79 496.08 805.79 505.17"/></g><path class="cls-7" d="M782.43,562.13c-4-2.57-4.95-8.38-2-13s8.56-6.26,12.6-3.69"/><path class="cls-7" d="M791.26,569.11c4.22-2.69,5.17-8.77,2.11-13.59s-9-6.55-13.2-3.86"/><path class="cls-7" d="M972.89,562.13c4-2.57,4.94-8.38,2-13s-8.57-6.26-12.61-3.69"/><path class="cls-7" d="M964.06,569.11c-4.23-2.69-5.18-8.77-2.12-13.59s9-6.55,13.2-3.86"/><path id="shaddow_hidung" data-name="shaddow hidung" class="cls-5" d="M868.2,552.45H890a.2.2,0,0,0,.12-.36c-1.78-1.24-7.78-5.23-11.38-5.23s-9.06,4-10.66,5.23A.2.2,0,0,0,868.2,552.45Z"/><g id="mounth"><path class="cls-8" d="M872.58,568.69h12.87a18.86,18.86,0,0,1,18.86,18.87h0a.21.21,0,0,1-.24.21l-13.08-2a76.29,76.29,0,0,0-23.27,0L854,587.77a.22.22,0,0,1-.25-.21h0A18.87,18.87,0,0,1,872.58,568.69Z"/></g><path class="cls-9" d="M838,518.15c-3.61,0-6.56,3.69-6.78,8.35l6.05,2.15-5.52,2c1,3.17,3.45,5.39,6.25,5.39,3.76,0,6.81-4,6.81-8.92S841.71,518.15,838,518.15Z"/><path class="cls-9" d="M919,518.15c-3.52,0-6.38,3.79-6.53,8.53l5.55,2-5.08,1.8c1,3.25,3.32,5.54,6.06,5.54,3.62,0,6.55-4,6.55-8.92S922.6,518.15,919,518.15Z"/><g id="alis"><path class="cls-6" d="M898.27,505.7a13.65,13.65,0,0,1,2.56-6,19.25,19.25,0,0,1,4.81-4.67,23.49,23.49,0,0,1,25.88,0,19,19,0,0,1,4.8,4.67,13.58,13.58,0,0,1,2.56,6.05,57.16,57.16,0,0,0-5.6-2.19,41.81,41.81,0,0,0-5.08-1.4,48.93,48.93,0,0,0-9.63-1,48.12,48.12,0,0,0-9.62,1,43.42,43.42,0,0,0-5.09,1.41A58.84,58.84,0,0,0,898.27,505.7Z"/></g><g id="alis-2" data-name="alis"><path class="cls-6" d="M817.65,505.7a13.54,13.54,0,0,1,2.56-6A19.08,19.08,0,0,1,825,495a23.48,23.48,0,0,1,25.87,0,19.08,19.08,0,0,1,4.81,4.67,13.58,13.58,0,0,1,2.56,6.05,57.16,57.16,0,0,0-5.6-2.19,41.46,41.46,0,0,0-5.09-1.4,48.83,48.83,0,0,0-9.62-1,48.15,48.15,0,0,0-9.63,1,44.52,44.52,0,0,0-5.09,1.41A59.78,59.78,0,0,0,817.65,505.7Z"/></g><ellipse class="cls-10" cx="838.02" cy="526.67" rx="13.11" ry="16.16"/><ellipse class="cls-10" cx="918.57" cy="526.67" rx="13.11" ry="16.16"/><g id="hidung"><path class="cls-6" d="M868.05,551.18a16,16,0,0,1,4.47-3.65,18.17,18.17,0,0,1,2.56-1.2c.45-.17.92-.31,1.42-.45.25-.07.56-.11.83-.16a5.81,5.81,0,0,1,1.12-.07l.58.06.43.09a7.64,7.64,0,0,1,.79.19,13.33,13.33,0,0,1,1.39.49,18,18,0,0,1,2.52,1.26,15.75,15.75,0,0,1,4.36,3.77,20.65,20.65,0,0,1-5.68-.06c-.88-.11-1.75-.28-2.58-.43-.41-.08-.82-.18-1.19-.24l-.53-.1-.23,0h-.09c-.06,0-.11,0-.22,0l-.5.07-1.18.19c-.83.13-1.7.27-2.59.36A20.9,20.9,0,0,1,868.05,551.18Z"/></g><path class="cls-6" d="M949.34,505.17S937.45,492.82,930,469.4c0,0-43.81-3.7-59.37,1.65s-7.87,23.71-29.13,28.36-36.5,14.59-48-2.36,5.55-56.88,5.55-56.88l30.63-16.81,74.48,3.29,48,25.49Z"/><polygon class="cls-6" points="949.34 448.21 963.41 452.3 952.2 492.13 938.88 474.32 949.34 448.21"/><polygon class="cls-6" points="800.38 487.36 795.78 508.56 784.36 487.36 789.52 464.96 800.38 487.36"/></g><polygon class="cls-5" points="1055.99 982.86 1132.68 1025.67 1221.41 997.05 1142.03 878.67 1055.99 982.86"/><path class="cls-3" d="M1192.41,916.8l-98.2,123.52L1029.29,931.5l-7.08-111,62-61.58C1092.21,768.72,1192.41,916.8,1192.41,916.8Z"/><path class="cls-3" d="M1032.28,715.16a337,337,0,0,0-50.07-20.41c-6.71-2.17-13.52-4.1-20.32-5.8-12.27-3.09-19.91-5.47-32.36-7.15C919,695.11,896.69,703.87,876.77,704c-19.93-.17-42.23-8.93-52.77-22.24-12.45,1.68-20.09,4.06-32.35,7.15-6.81,1.7-13.61,3.63-20.32,5.8a336.54,336.54,0,0,0-50.07,20.41c-34.81,17.56-70.07,49.79-65.61,91.58,3.68,34.48,23.82,66.11,37,106.43,9.83,30.21,15.67,65.34,7.67,110.21-4,22.43-7.17,35.3-9.66,60.18h372.21c-2.45-24.88-5.58-37.75-9.6-60.18-8-44.87-2.16-80,7.68-110.21,13.15-40.32,33.28-71.95,37-106.43C1102.34,765,1067.08,732.72,1032.28,715.16Z"/><path class="cls-1" d="M935.1,778.25h4.18l5.13,15.14H941l-1-3.09H934.4l-1,3.09H930Zm4,9.31-1.89-5.84-1.91,5.84Z"/><path class="cls-1" d="M946,778.25h5.8a6.79,6.79,0,0,1,2.78.54,4.38,4.38,0,0,1,1.9,1.63,4.86,4.86,0,0,1,.69,2.67,4.74,4.74,0,0,1-.71,2.63,4.61,4.61,0,0,1-1.91,1.64l3.45,6h-3.54l-3.07-5.49h-2.23v5.49H946Zm5.82,6.91a2.24,2.24,0,0,0,1.6-.57,2,2,0,0,0,.6-1.5,2,2,0,0,0-.6-1.53,2.24,2.24,0,0,0-1.6-.57h-2.66v4.17Z"/><path class="cls-1" d="M959.54,778.25h3.15v15.14h-3.15Z"/><path class="cls-1" d="M968.21,793.12a6.47,6.47,0,0,1-2.16-1.47,6.22,6.22,0,0,1-1.35-2.26l2.58-1.16a4.73,4.73,0,0,0,1.58,1.95,3.72,3.72,0,0,0,2.23.71,2.48,2.48,0,0,0,1.53-.43,1.38,1.38,0,0,0,.58-1.17c0-.71-.45-1.21-1.34-1.51l-3-1q-3.64-1.2-3.64-4.29a4.21,4.21,0,0,1,.66-2.36,4.44,4.44,0,0,1,1.85-1.59,6.3,6.3,0,0,1,2.74-.57,6.37,6.37,0,0,1,3.61,1,5.45,5.45,0,0,1,2.18,2.81L973.73,783a3.6,3.6,0,0,0-1.28-1.65,3.31,3.31,0,0,0-2-.6,2.5,2.5,0,0,0-1.55.45,1.46,1.46,0,0,0-.59,1.19c0,.72.46,1.24,1.39,1.55l2.9.93q3.65,1.18,3.64,4.23a4.09,4.09,0,0,1-.69,2.35,4.63,4.63,0,0,1-1.9,1.61,6.43,6.43,0,0,1-2.82.58A6.83,6.83,0,0,1,968.21,793.12Z"/><path class="cls-1" d="M933.93,812.07a6.13,6.13,0,0,1-3.51-3.74l2.58-1.16a4.82,4.82,0,0,0,1.58,2,3.79,3.79,0,0,0,2.22.71,2.51,2.51,0,0,0,1.54-.44,1.38,1.38,0,0,0,.58-1.17c0-.7-.45-1.2-1.34-1.5l-3-1q-3.65-1.2-3.64-4.29a4.26,4.26,0,0,1,.66-2.36,4.42,4.42,0,0,1,1.85-1.58,6.23,6.23,0,0,1,2.73-.57,6.42,6.42,0,0,1,3.61,1,5.49,5.49,0,0,1,2.19,2.82L939.45,802a3.64,3.64,0,0,0-1.28-1.66,3.32,3.32,0,0,0-2-.6,2.41,2.41,0,0,0-1.54.46,1.44,1.44,0,0,0-.59,1.19c0,.72.46,1.23,1.38,1.54l2.91.94Q942,805,942,808.05a4.13,4.13,0,0,1-.69,2.35,4.67,4.67,0,0,1-1.9,1.6,6.43,6.43,0,0,1-2.82.58A7,7,0,0,1,933.93,812.07Z"/><path class="cls-1" d="M946.81,799.94H943v-2.75h10.78v2.75H950v12.4h-3.16Z"/><path class="cls-1" d="M970,797.19H975a8.89,8.89,0,0,1,4.27,1,7,7,0,0,1,2.8,2.68,8.14,8.14,0,0,1,0,7.82,7,7,0,0,1-2.8,2.69,8.89,8.89,0,0,1-4.27,1H970Zm5,12.4a5.18,5.18,0,0,0,2.56-.6,4.18,4.18,0,0,0,1.68-1.68,5.76,5.76,0,0,0,0-5.12,4.13,4.13,0,0,0-1.68-1.66,5.18,5.18,0,0,0-2.56-.59h-1.87v9.65Z"/><path class="cls-1" d="M985.06,797.19h10.19v2.75h-7v3.43h6.62v2.75h-6.62v3.47h7v2.75H985.06Z"/><path class="cls-1" d="M999.88,812.07a6.13,6.13,0,0,1-3.51-3.74l2.58-1.16a4.82,4.82,0,0,0,1.58,2,3.79,3.79,0,0,0,2.22.71,2.51,2.51,0,0,0,1.54-.44,1.38,1.38,0,0,0,.58-1.17c0-.7-.45-1.2-1.34-1.5l-3-1q-3.64-1.2-3.64-4.29a4.26,4.26,0,0,1,.66-2.36,4.42,4.42,0,0,1,1.85-1.58,6.23,6.23,0,0,1,2.73-.57,6.42,6.42,0,0,1,3.61,1,5.49,5.49,0,0,1,2.19,2.82L1005.4,802a3.64,3.64,0,0,0-1.28-1.66,3.32,3.32,0,0,0-2-.6,2.41,2.41,0,0,0-1.54.46,1.44,1.44,0,0,0-.59,1.19c0,.72.46,1.23,1.38,1.54l2.91.94q3.64,1.18,3.64,4.23a4.13,4.13,0,0,1-.69,2.35,4.67,4.67,0,0,1-1.9,1.6,6.43,6.43,0,0,1-2.82.58A7,7,0,0,1,999.88,812.07Z"/><path class="cls-2" d="M1011.63,809.29h3v3.05h-3Z"/><path class="cls-1" d="M964.54,806.59a3.23,3.23,0,0,1-.4,1.61,2.91,2.91,0,0,1-1.07,1.13,3.23,3.23,0,0,1-3.15,0,2.87,2.87,0,0,1-1.08-1.13,3.23,3.23,0,0,1-.4-1.61v-2.31h-3.15v2.51a5.57,5.57,0,0,0,.8,3,5.7,5.7,0,0,0,2.21,2.06,7.16,7.16,0,0,0,6.38,0,5.54,5.54,0,0,0,3-5v-2.51h-3.15Z"/><rect class="cls-2" x="964.54" y="797.19" width="3.15" height="2.93"/><rect class="cls-2" x="955.29" y="797.19" width="3.15" height="2.93"/><polygon class="cls-5" points="691.87 982.86 615.18 1025.67 526.45 997.05 605.83 878.67 691.87 982.86"/><path class="cls-3" d="M560.15,916.8l98.19,123.52L723.27,931.5l7.08-111-62-61.58C660.35,768.72,560.15,916.8,560.15,916.8Z"/><path class="cls-4" d="M510.79,1030.6v-4.39a54.46,54.46,0,0,0,49.36,59.11l262,2.31-.17-67.07L569.9,981.25A54.45,54.45,0,0,0,510.79,1030.6Z"/><path class="cls-4" d="M1237.07,1030.6v-4.39a54.46,54.46,0,0,1-49.36,59.11l-262,2.31.17-67.07L1178,981.25A54.45,54.45,0,0,1,1237.07,1030.6Z"/><line class="cls-11" x1="730.35" y1="832.48" x2="730.35" y2="890.67"/><line class="cls-11" x1="1043.26" y1="832.48" x2="1043.26" y2="890.67"/><polygon class="cls-12" points="1071.52 1085.02 691.01 1085.02 681.02 843.72 1081.5 843.72 1071.52 1085.02"/><line class="cls-13" x1="116.7" y1="1088.85" x2="1607.77" y2="1088.85"/><path class="cls-11" d="M1141.35,981l51.06-64.22s-81-119.65-103.13-151"/><path class="cls-11" d="M600.58,857.21c-21.82,32.09-40.43,59.59-40.43,59.59l41.76,52.53"/><path class="cls-11" d="M982.21,694.75c-6.71-2.17-13.52-4.1-20.32-5.8-12.27-3.09-19.91-5.47-32.36-7.15C919,695.11,896.69,703.87,876.77,704c-19.93-.17-42.23-8.93-52.77-22.24-12.45,1.68-20.09,4.06-32.35,7.15-6.81,1.7-13.61,3.63-20.32,5.8a336.54,336.54,0,0,0-50.07,20.41c-20,10.09-40.15,25-52.83,43.84l-.09-.1c-4.55,5.59-39,56-67.76,98.31"/><path class="cls-5" d="M1461.47,1092.75h42.91a14.14,14.14,0,0,0,14.06-12.59l13.38-120.87a2.84,2.84,0,0,0-2.83-3.16h-92.12a2.85,2.85,0,0,0-2.84,3.16l13.39,120.87A14.13,14.13,0,0,0,1461.47,1092.75Z"/><path class="cls-5" d="M1415.56,1054.58,1408.19,988a9.06,9.06,0,0,1,9-10.07H1468a9.06,9.06,0,0,1,9,10.07l-7.38,66.62a15.27,15.27,0,0,1-15.2,13.61h-23.65A15.28,15.28,0,0,1,1415.56,1054.58Zm15.86-61.69a6.8,6.8,0,0,0-6.76,7.55l5.14,46.44a7.1,7.1,0,0,0,7.06,6.31h17.56a.28.28,0,0,0,.29-.26l6.65-60Z"/><g id="Happy"><g id="leher-2" data-name="leher"><path class="cls-5" d="M832.23,637.86s14.06,29.43,48.33,29.43,46.07-29.92,46.07-29.92Z"/></g><g id="Head_basic-2" data-name="Head basic"><path class="cls-6" d="M947.67,603.86s6.18-5.86,8.67-10.18S962.63,583,962.63,583l9.84-51.3,5.61-22.95S981.31,493,985,477.43s1-49.54-19.08-49.87c-4.48-13.11-18.84-22.4-18.84-22.4a96.3,96.3,0,0,0-47-14c-6.06-.66-17.76-.66-17.76-.66s-22.65-1-44.23,7.88c-30,13.11-41.21,32.81-41.21,32.81s-16.38,23.12-16.38,48.46a93.93,93.93,0,0,0,0,19.25c.25,4.17,3.74,25.3,5.81,32.83.22.88,12.08,49.54,13.11,51.46a79.73,79.73,0,0,0,3.43,8.2l6.75,11.73Z"/><path class="cls-4" d="M931.89,631.48c-14,16.09-31.75,26.46-53,26.11-21.26.35-39-10-53-26.11a2.21,2.21,0,0,0-.25-.3c-25.1-31.73-30.21-77.94-23.41-132.95,4.89-39.58,42.21-54.92,62.93-60.43a53.49,53.49,0,0,1,27.52,0c20.72,5.51,58,20.85,62.93,60.43C962.38,553.42,957.22,599.75,931.89,631.48Z"/><ellipse class="cls-4" cx="794.39" cy="557.29" rx="21.24" ry="27.23" transform="translate(-172.22 471.86) rotate(-30)"/><ellipse class="cls-4" cx="964.66" cy="557.29" rx="27.23" ry="21.24" transform="translate(-0.3 1114.06) rotate(-60)"/><path class="cls-5" d="M950.59,509.85s-11.89-12.35-19.31-35.77c0,0-43.81-3.69-59.37,1.65s-7.86,23.71-29.12,28.36-36.5,14.59-48-2.36,5.55-56.87,5.55-56.87L831,428.05l74.47,3.29,48,25.48Z"/><polygon class="cls-6" points="950.59 505.19 956.42 557.29 958.3 534.54 961.4 527.3 959.14 474.35 950.59 483.32 950.59 505.19"/><polygon class="cls-6" points="807.06 505.19 801.23 557.29 799.35 534.54 796.25 527.3 797.58 496.1 807.06 496.1 807.06 505.19"/></g><path class="cls-6" d="M950.59,504s-11.89-12.35-19.31-35.77c0,0-43.81-3.69-59.37,1.65s-7.86,23.71-29.12,28.36-36.5,14.59-48-2.36S800.33,439,800.33,439L831,422.23l74.47,3.29,48,25.48Z"/><path class="cls-6" d="M783.7,563.44a1.29,1.29,0,0,1-.7-.2c-4.64-2.94-5.72-9.57-2.42-14.77s9.76-7,14.4-4.09a1.3,1.3,0,1,1-1.4,2.19c-3.42-2.17-8.27-.7-10.81,3.29s-1.8,9,1.62,11.19a1.29,1.29,0,0,1,.4,1.79A1.27,1.27,0,0,1,783.7,563.44Z"/><path class="cls-6" d="M792.53,570.42a1.3,1.3,0,0,1-.7-2.4c3.61-2.29,4.38-7.58,1.71-11.79a9.76,9.76,0,0,0-5.42-4.19,7.25,7.25,0,0,0-6,.73,1.3,1.3,0,1,1-1.39-2.19,9.77,9.77,0,0,1,8.1-1,12.35,12.35,0,0,1,6.89,5.3c3.44,5.41,2.31,12.31-2.52,15.38A1.25,1.25,0,0,1,792.53,570.42Z"/><path class="cls-6" d="M974.14,563.44a1.3,1.3,0,0,1-1.1-.6,1.29,1.29,0,0,1,.4-1.79c3.43-2.18,4.15-7.2,1.62-11.19a9.22,9.22,0,0,0-5.15-4,6.85,6.85,0,0,0-5.66.69,1.3,1.3,0,0,1-1.39-2.19,9.37,9.37,0,0,1,7.78-1,11.81,11.81,0,0,1,6.61,5.08c3.31,5.2,2.22,11.83-2.42,14.77A1.23,1.23,0,0,1,974.14,563.44Z"/><path class="cls-6" d="M965.31,570.42a1.29,1.29,0,0,1-.7-.2c-4.82-3.07-6-10-2.51-15.38s10.16-7.33,15-4.26a1.3,1.3,0,1,1-1.4,2.19c-3.61-2.3-8.73-.74-11.4,3.46s-1.9,9.5,1.71,11.79a1.3,1.3,0,0,1-.69,2.4Z"/><polygon class="cls-6" points="787.13 464.81 802.17 498.23 794.39 509.6 785.5 471.16 787.13 464.81"/><polygon class="cls-6" points="950.59 449.49 961.4 452.73 955.99 494.74 946.6 481.81 950.59 449.49"/><g id="shaddow_hidung-2" data-name="shaddow hidung"><path class="cls-5" d="M869.46,552.47h21.8a.2.2,0,0,0,.12-.36c-1.78-1.24-7.78-5.23-11.38-5.23s-9.06,4-10.66,5.23A.2.2,0,0,0,869.46,552.47Z"/></g><g id="mounth-2" data-name="mounth"><path class="cls-3" d="M855,568.71h50.59a0,0,0,0,1,0,0v5.23a13.88,13.88,0,0,1-13.88,13.88H868.86A13.88,13.88,0,0,1,855,573.94v-5.23a0,0,0,0,1,0,0Z"/></g><path class="cls-6" d="M839.22,518.17c-3.62,0-6.56,3.69-6.79,8.36l6.06,2.14-5.52,2c1,3.17,3.45,5.39,6.25,5.39,3.75,0,6.8-4,6.8-8.92S843,518.17,839.22,518.17Z"/><path class="cls-6" d="M920.24,518.17c-3.52,0-6.39,3.79-6.54,8.53l5.55,2-5.07,1.8c1,3.25,3.32,5.54,6.06,5.54,3.61,0,6.55-4,6.55-8.92S923.85,518.17,920.24,518.17Z"/><g id="alis-3" data-name="alis"><path class="cls-6" d="M899.53,505.73a11.94,11.94,0,0,1,2.16-1.74,22.65,22.65,0,0,1,2.4-1.35,30.36,30.36,0,0,1,5.1-1.89,40.93,40.93,0,0,1,10.64-1.37,40.5,40.5,0,0,1,10.64,1.36,30.36,30.36,0,0,1,5.1,1.89A21.1,21.1,0,0,1,938,504a11.53,11.53,0,0,1,2.16,1.74c-3.66,0-7,0-10.34.08s-6.64.07-10,.07-6.62,0-10-.08S903.19,505.69,899.53,505.73Z"/></g><g id="alis-4" data-name="alis"><path class="cls-6" d="M818.91,505.73a12,12,0,0,1,2.17-1.74,22.65,22.65,0,0,1,2.4-1.35,30.36,30.36,0,0,1,5.1-1.89,42.15,42.15,0,0,1,21.28,0,30.69,30.69,0,0,1,5.1,1.89,21,21,0,0,1,2.39,1.36,11.59,11.59,0,0,1,2.17,1.74c-3.66,0-7,0-10.34.08s-6.64.07-10,.07-6.63,0-10-.08S822.57,505.69,818.91,505.73Z"/></g><g id="hidung-2" data-name="hidung"><path class="cls-6" d="M869.32,551.2a21,21,0,0,1,4.67-3,27.46,27.46,0,0,1,2.56-1.05c.45-.15.91-.28,1.39-.4.23-.07.51-.1.77-.15a4.32,4.32,0,0,1,1-.05l.49,0,.4.08a7.29,7.29,0,0,1,.74.18c.47.13.92.28,1.36.44a24.91,24.91,0,0,1,2.53,1.12,21,21,0,0,1,4.59,3.12,29.85,29.85,0,0,1-5.45-.71c-.87-.18-1.73-.39-2.57-.58-.42-.1-.83-.2-1.23-.28-.19,0-.4-.09-.57-.11l-.26-.05h-.18a1.65,1.65,0,0,0-.38,0l-.55.09c-.4.06-.81.15-1.23.23-.84.17-1.7.35-2.58.5A30.14,30.14,0,0,1,869.32,551.2Z"/></g></g></g></g></svg>