<svg id="Layer_1" data-name="Layer 1" xmlns="http://www.w3.org/2000/svg" viewBox="0 0 199 40"><defs><style>.cls-1{fill:#121f3e;}.cls-2{fill:#4532dc;fill-rule:evenodd;}.cls-3{fill:#fff;}</style></defs><path class="cls-1" d="M60.25,9.75V25.59H56.12V19.2h-6v6.39H46V9.75h4.12V16h6V9.75Z"/><path class="cls-1" d="M63.32,21.61v-8H67.4v7.06c0,1.53.63,2.06,1.75,2.06s2.09-.82,2.09-2.69V13.59h4.08v12H71.67l-.11-2.26a4.13,4.13,0,0,1-4.11,2.5C65,25.83,63.32,24.63,63.32,21.61Z"/><path class="cls-1" d="M78.25,13.59H81.9L82,15.92a4.22,4.22,0,0,1,4-2.57,3.8,3.8,0,0,1,3.79,2.37,4.32,4.32,0,0,1,4-2.37A3.86,3.86,0,0,1,98,17.6l0,8h-4V18.53c0-1.51-.65-2.06-1.63-2.06-1.23,0-2.11.91-2.11,2.71v6.41H86.07V18.53c0-1.51-.67-2.06-1.63-2.06-1.13,0-2.11.81-2.11,2.78v6.34H78.25Z"/><path class="cls-1" d="M113.12,23.14l-.24,2.33a4,4,0,0,1-1.75.34c-1.51,0-2.66-.58-3-1.78a4.43,4.43,0,0,1-3.91,1.8c-2.47,0-4-1.15-4-3.31,0-1.73,1-2.88,3.24-3.34l4.15-.86V18a1.65,1.65,0,0,0-1.73-1.82,2,2,0,0,0-2.13,1.8l-3.46-.82c.43-2.3,2.35-3.79,5.83-3.79s5.55,1.58,5.55,4.56V22.3c0,.65.29.94.84.94A2,2,0,0,0,113.12,23.14Zm-5.59-2v-.67l-1.94.4c-1,.22-1.42.53-1.42,1.25s.58,1.06,1.3,1.06A1.91,1.91,0,0,0,107.53,21.15Z"/><path class="cls-1" d="M126.76,17.6v8h-4.08V18.68c0-1.66-.7-2.21-1.71-2.21-1.18,0-2.16.77-2.16,2.76v6.36h-4.08v-12h3.65L118.5,16a4.15,4.15,0,0,1,4.1-2.66A3.86,3.86,0,0,1,126.76,17.6Z"/><path class="cls-1" d="M142.93,12.2l-2,2.66A6.46,6.46,0,0,0,136,12.7c-1.78,0-2.47.65-2.47,1.49s.6,1.13,2,1.44l2.66.6c3.17.72,4.59,2.09,4.59,4.42,0,3.38-2.81,5.18-6.7,5.18A10.41,10.41,0,0,1,128.53,23l2-2.76a7.59,7.59,0,0,0,5.52,2.4c1.64,0,2.5-.51,2.5-1.44,0-.67-.38-1.15-1.73-1.47l-2.93-.64c-2.69-.58-4.63-1.78-4.63-4.42,0-3,2.54-5.16,6.84-5.16A8.85,8.85,0,0,1,142.93,12.2Z"/><path class="cls-1" d="M157.69,19.54c0,4-2,6.29-5,6.29a3.87,3.87,0,0,1-3.6-2.28v7.08H145v-17h3.67l.12,2.42a4.18,4.18,0,0,1,3.94-2.66C155.72,13.35,157.69,15.63,157.69,19.54Zm-4.1.05c0-2.23-.84-3.24-2.24-3.24s-2.23,1.15-2.23,3.24.8,3.24,2.21,3.24S153.59,21.82,153.59,19.59Z"/><path class="cls-1" d="M172.26,23.14,172,25.47a4,4,0,0,1-1.75.34c-1.52,0-2.67-.58-3.05-1.78a4.44,4.44,0,0,1-3.91,1.8c-2.48,0-4-1.15-4-3.31,0-1.73,1-2.88,3.24-3.34l4.16-.86V18a1.65,1.65,0,0,0-1.73-1.82A2,2,0,0,0,162.8,18l-3.45-.82c.43-2.3,2.35-3.79,5.83-3.79s5.54,1.58,5.54,4.56V22.3c0,.65.29.94.84.94A2.07,2.07,0,0,0,172.26,23.14Zm-5.59-2v-.67l-1.95.4c-1,.22-1.41.53-1.41,1.25s.57,1.06,1.29,1.06A1.92,1.92,0,0,0,166.67,21.15Z"/><path class="cls-1" d="M185.24,17.07l-3.77,1.25c-.16-1.39-.81-2.07-1.89-2.07-1.54,0-2.33,1-2.33,3.39s.91,3.29,2.35,3.29c1.18,0,1.8-.7,2-1.95l3.68,1.18c-.36,2.08-2.43,3.67-5.64,3.67-4,0-6.48-2.3-6.48-6.24s2.56-6.24,6.31-6.24S184.86,15.12,185.24,17.07Z"/><path class="cls-1" d="M198.9,20.62h-8.19A2.31,2.31,0,0,0,193.23,23a2.19,2.19,0,0,0,2.26-1.37l3.26,1.08c-.69,2.07-3,3.17-5.52,3.17-4,0-6.48-2.28-6.48-6.24s2.57-6.24,6.29-6.24,6,2.37,6,5.69A13,13,0,0,1,198.9,20.62Zm-8.16-2.18h4.37C195,17,194.29,16.2,193,16.2S191,16.9,190.74,18.44Z"/><path class="cls-2" d="M20.44,40.07a20,20,0,1,0-20-20A20,20,0,0,0,20.44,40.07Z"/><path class="cls-3" d="M28.82,13.57H16.08a.22.22,0,0,0-.15.37L29.16,27.17a.22.22,0,0,1,0,.3l-1.31,1.32a.23.23,0,0,1-.31,0L14.31,15.56a.21.21,0,0,0-.36.15V28.63a.21.21,0,0,1-.22.21H11.88a.21.21,0,0,1-.22-.21V11.5a.21.21,0,0,1,.22-.21H28.82a.21.21,0,0,1,.21.21v1.86A.21.21,0,0,1,28.82,13.57Z"/></svg>