<?xml version="1.0" encoding="utf-8"?>
<!-- Generator: Adobe Illustrator 24.2.2, SVG Export Plug-In . SVG Version: 6.00 Build 0)  -->
<svg version="1.1" id="Layer_1" xmlns="http://www.w3.org/2000/svg" xmlns:xlink="http://www.w3.org/1999/xlink" x="0px" y="0px"
	 viewBox="0 0 41 40" style="enable-background:new 0 0 41 40;" xml:space="preserve">
<style type="text/css">
	.st0{fill-rule:evenodd;clip-rule:evenodd;fill:#4532DC;}
	.st1{fill:#FFFFFF;}
</style>
<g>
	<path class="st0" d="M20.5,40c11,0,20-9,20-20s-9-20-20-20c-11,0-20,9-20,20S9.5,40,20.5,40z"/>
	<g>
		<path class="st1" d="M28.9,13.5H16.1c-0.2,0-0.3,0.2-0.2,0.4l13.2,13.2c0.1,0.1,0.1,0.2,0,0.3l-1.3,1.3c-0.1,0.1-0.2,0.1-0.3,0
			L14.4,15.5c-0.1-0.1-0.4,0-0.4,0.2v12.9c0,0.1-0.1,0.2-0.2,0.2h-1.9c-0.1,0-0.2-0.1-0.2-0.2V11.4c0-0.1,0.1-0.2,0.2-0.2h16.9
			c0.1,0,0.2,0.1,0.2,0.2v1.9C29.1,13.4,29,13.5,28.9,13.5z"/>
	</g>
</g>
</svg>
